<svg xmlns="http://www.w3.org/2000/svg" width="512" height="512" viewBox="0 0 512 512">
  <defs>
    <linearGradient id="bg" x1="0%" y1="0%" x2="100%" y2="100%">
      <stop offset="0%" stop-color="#0f172a" />
      <stop offset="100%" stop-color="#1d4ed8" />
    </linearGradient>
  </defs>
  <rect width="512" height="512" rx="112" fill="url(#bg)" />
  <path d="M152 120h144c18 0 33 15 33 33v206c0 18-15 33-33 33H152c-18 0-32-15-32-33V153c0-18 14-33 32-33Z" fill="#f8fafc" />
  <path d="M329 177h32c18 0 31 14 31 32v150c0 18-13 33-31 33h-99c-18 0-33-15-33-33v-15h67c18 0 33-15 33-33V177Z" fill="#bfdbfe" />
  <path d="M168 184h96M168 232h128M168 280h128M168 328h88" stroke="#1e3a8a" stroke-width="22" stroke-linecap="round" />
  <path d="m308 110 84 84" stroke="#93c5fd" stroke-width="22" stroke-linecap="round" />
</svg>
